<?xml version="1.0" encoding="UTF-8" standalone="no"?><svg xmlns="http://www.w3.org/2000/svg" xmlns:xlink="http://www.w3.org/1999/xlink" contentStyleType="text/css" height="80px" preserveAspectRatio="none" style="width:623px;height:80px;background:#FFFFFF;" version="1.1" viewBox="0 0 623 80" width="623px" zoomAndPan="magnify"><defs/><g><!--MD5=[26d2ca7d917c5a5fc50b0b136320e399]
class Objectify--><g id="elem_Objectify"><rect codeLine="3" fill="#F1F1F1" height="59.0679" id="Objectify" rx="2.5" ry="2.5" style="stroke:#181818;stroke-width:0.5;" width="602" x="7" y="7"/><ellipse cx="273.75" cy="23" fill="#ADD1B2" rx="11" ry="11" style="stroke:#181818;stroke-width:1.0;"/><path d="M273.2188,29.9219 Q271.4688,29.9219 270.3281,29.1875 Q269.2031,28.4375 268.6406,27.0938 Q268.0938,25.7344 268.0938,23.9375 Q268.0938,21.9063 268.75,20.4531 Q269.4063,19 270.6875,18.2188 Q271.9688,17.4375 273.8438,17.4375 Q274.7344,17.4375 275.4063,17.625 Q276.0781,17.7969 276.7656,18.1406 L275.9531,20.1563 Q275.3281,19.8438 274.7813,19.7188 Q274.25,19.5938 273.7656,19.5938 Q272.5938,19.5938 271.8906,20.125 Q271.1875,20.6563 270.8906,21.6094 Q270.5938,22.5625 270.5938,23.8281 Q270.5938,25.8438 271.3125,26.8125 Q272.0313,27.7656 273.625,27.7656 Q274.2188,27.7656 274.8438,27.6094 Q275.4688,27.4531 276.2969,27.0781 L276.2969,29.2969 Q275.5625,29.6094 274.7656,29.7656 Q273.9844,29.9219 273.2188,29.9219 Z " fill="#000000"/><text fill="#000000" font-family="sans-serif" font-size="14" lengthAdjust="spacing" textLength="60" x="294.25" y="28.432">Objectify</text><line style="stroke:#181818;stroke-width:0.5;" x1="8" x2="608" y1="39" y2="39"/><ellipse cx="18" cy="54.034" fill="#84BE84" rx="3" ry="3" style="stroke:#038048;stroke-width:1.0;"/><text fill="#000000" font-family="sans-serif" font-size="14" lengthAdjust="spacing" text-decoration="underline" textLength="576" x="27" y="57.9659">parseObject(props: list&lt;Property | AggregatedProperty&gt;, row: IDBRowReader): Object</text></g><!--MD5=[b55db83d99bbcaa7b56152e0bde1f030]
@startuml
hide empty members

class Objectify {
    {static} +parseObject(props: list<Property | AggregatedProperty>, row: IDBRowReader): Object
}
@enduml

PlantUML version 1.2022.8(Sun Sep 25 06:00:33 ART 2022)
(MIT source distribution)
Java Runtime: OpenJDK Runtime Environment
JVM: OpenJDK 64-Bit Server VM
Default Encoding: UTF-8
Language: en
Country: US
--></g></svg>