<?xml version="1.0" encoding="UTF-8" standalone="no"?><svg xmlns="http://www.w3.org/2000/svg" xmlns:xlink="http://www.w3.org/1999/xlink" contentStyleType="text/css" height="1069px" preserveAspectRatio="none" style="width:1239px;height:1069px;background:#FFFFFF;" version="1.1" viewBox="0 0 1239 1069" width="1239px" zoomAndPan="magnify"><defs/><g><!--MD5=[b7b2a37e41fc7860b2beae32fdcac153]
class PropertyType--><g id="elem_PropertyType"><rect codeLine="3" fill="#F1F1F1" height="97.2038" id="PropertyType" rx="2.5" ry="2.5" style="stroke:#181818;stroke-width:0.5;" width="121" x="7" y="620.5"/><ellipse cx="22" cy="636.5" fill="#EB937F" rx="11" ry="11" style="stroke:#181818;stroke-width:1.0;"/><path d="M18.3594,643 L18.3594,630.8594 L26.0156,630.8594 L26.0156,632.9844 L20.7344,632.9844 L20.7344,635.6406 L25.75,635.6406 L25.75,637.7656 L20.7344,637.7656 L20.7344,640.875 L26.0156,640.875 L26.0156,643 L18.3594,643 Z " fill="#000000"/><text fill="#000000" font-family="sans-serif" font-size="14" lengthAdjust="spacing" textLength="89" x="36" y="641.932">PropertyType</text><line style="stroke:#181818;stroke-width:0.5;" x1="8" x2="127" y1="652.5" y2="652.5"/><text fill="#000000" font-family="sans-serif" font-size="14" lengthAdjust="spacing" textLength="51" x="13" y="671.4659">STRING</text><text fill="#000000" font-family="sans-serif" font-size="14" lengthAdjust="spacing" textLength="55" x="13" y="690.5339">DOUBLE</text><text fill="#000000" font-family="sans-serif" font-size="14" lengthAdjust="spacing" textLength="59" x="13" y="709.6018">INTEGER</text></g><!--MD5=[ad09692045c0465b80646fb253f88c95]
class LogicConstValue--><g id="elem_LogicConstValue"><rect codeLine="9" fill="#F1F1F1" height="129.6837" id="LogicConstValue" rx="2.5" ry="2.5" style="stroke:#181818;stroke-width:0.5;" width="142" x="163.5" y="604"/><ellipse cx="178.5" cy="626.706" fill="#DA70D6" rx="11" ry="11" style="stroke:#181818;stroke-width:1.0;"/><path d="M175.2656,633.206 L175.2656,621.0654 L179.0156,621.0654 Q181.3906,621.0654 182.7813,622.581 Q184.1875,624.081 184.1875,627.0341 Q184.1875,630.0029 182.75,631.6123 Q181.3125,633.206 178.8281,633.206 L175.2656,633.206 Z M178.7031,631.1123 Q180.25,631.1123 180.9688,630.1123 Q181.6875,629.1123 181.6875,627.0498 Q181.6875,625.0185 180.9844,624.0966 Q180.2969,623.1591 178.9063,623.1591 L177.7031,623.1591 L177.7031,631.1123 L178.7031,631.1123 Z " fill="#000000"/><text fill="#000000" font-family="sans-serif" font-size="12" font-style="italic" lengthAdjust="spacing" textLength="51" x="222" y="621.8281">«variant»</text><text fill="#000000" font-family="sans-serif" font-size="14" lengthAdjust="spacing" textLength="110" x="192.5" y="640.31">LogicConstValue</text><line style="stroke:#181818;stroke-width:0.5;" x1="164.5" x2="304.5" y1="649.412" y2="649.412"/><text fill="#000000" font-family="sans-serif" font-size="14" lengthAdjust="spacing" textLength="40" x="169.5" y="668.378">string</text><text fill="#000000" font-family="sans-serif" font-size="14" lengthAdjust="spacing" textLength="18" x="169.5" y="687.4459">int</text><text fill="#000000" font-family="sans-serif" font-size="14" lengthAdjust="spacing" textLength="47" x="169.5" y="706.5138">double</text><text fill="#000000" font-family="sans-serif" font-size="14" lengthAdjust="spacing" textLength="57" x="169.5" y="725.5817">Property</text></g><!--MD5=[6b626634f3bb0842bebd5e499c80b711]
class Property--><g id="elem_Property"><rect codeLine="16" fill="#F1F1F1" height="517.63" id="Property" rx="2.5" ry="2.5" style="stroke:#181818;stroke-width:0.5;" width="387" x="232" y="7"/><ellipse cx="392.75" cy="23" fill="#ADD1B2" rx="11" ry="11" style="stroke:#181818;stroke-width:1.0;"/><path d="M392.2188,29.9219 Q390.4688,29.9219 389.3281,29.1875 Q388.2031,28.4375 387.6406,27.0938 Q387.0938,25.7344 387.0938,23.9375 Q387.0938,21.9063 387.75,20.4531 Q388.4063,19 389.6875,18.2188 Q390.9688,17.4375 392.8438,17.4375 Q393.7344,17.4375 394.4063,17.625 Q395.0781,17.7969 395.7656,18.1406 L394.9531,20.1563 Q394.3281,19.8438 393.7813,19.7188 Q393.25,19.5938 392.7656,19.5938 Q391.5938,19.5938 390.8906,20.125 Q390.1875,20.6563 389.8906,21.6094 Q389.5938,22.5625 389.5938,23.8281 Q389.5938,25.8438 390.3125,26.8125 Q391.0313,27.7656 392.625,27.7656 Q393.2188,27.7656 393.8438,27.6094 Q394.4688,27.4531 395.2969,27.0781 L395.2969,29.2969 Q394.5625,29.6094 393.7656,29.7656 Q392.9844,29.9219 392.2188,29.9219 Z " fill="#000000"/><text fill="#000000" font-family="sans-serif" font-size="14" lengthAdjust="spacing" textLength="57" x="413.25" y="28.432">Property</text><line style="stroke:#181818;stroke-width:0.5;" x1="233" x2="618" y1="39" y2="39"/><rect fill="none" height="6" style="stroke:#C82930;stroke-width:1.0;" width="6" x="240" y="51.034"/><text fill="#000000" font-family="sans-serif" font-size="14" lengthAdjust="spacing" textLength="86" x="252" y="57.9659">name: string</text><rect fill="none" height="6" style="stroke:#C82930;stroke-width:1.0;" width="6" x="240" y="70.1019"/><text fill="#000000" font-family="sans-serif" font-size="14" lengthAdjust="spacing" textLength="126" x="252" y="77.0339">type: PropertyType</text><rect fill="none" height="6" style="stroke:#C82930;stroke-width:1.0;" width="6" x="240" y="89.1698"/><text fill="#000000" font-family="sans-serif" font-size="14" lengthAdjust="spacing" textLength="39" x="252" y="96.1018">id: int</text><line style="stroke:#181818;stroke-width:1.0;" x1="233" x2="618" y1="104.2038" y2="104.2038"/><text fill="#000000" font-family="sans-serif" font-size="14" lengthAdjust="spacing" textLength="118" x="238" y="123.1697">getName(): string</text><text fill="#000000" font-family="sans-serif" font-size="14" lengthAdjust="spacing" textLength="159" x="238" y="142.2376">getType(): PropertyType</text><text fill="#000000" font-family="sans-serif" font-size="14" lengthAdjust="spacing" textLength="70" x="238" y="161.3055">getId(): int</text><text fill="#000000" font-family="sans-serif" font-size="14" lengthAdjust="spacing" textLength="282" x="238" y="203.4414">countAs(alias:string): AggregatedProperty</text><text fill="#000000" font-family="sans-serif" font-size="14" lengthAdjust="spacing" textLength="272" x="238" y="222.5093">maxAs(alias:string): AggregatedProperty</text><text fill="#000000" font-family="sans-serif" font-size="14" lengthAdjust="spacing" textLength="270" x="238" y="241.5772">minAs(alias:string): AggregatedProperty</text><text fill="#000000" font-family="sans-serif" font-size="14" lengthAdjust="spacing" textLength="273" x="238" y="260.6451">sumAs(alias:string): AggregatedProperty</text><text fill="#000000" font-family="sans-serif" font-size="14" lengthAdjust="spacing" textLength="298" x="238" y="279.713">averageAs(alias:string): AggregatedProperty</text><line style="stroke:#181818;stroke-width:1.0;stroke-dasharray:1.0,2.0;" x1="233" x2="357" y1="178.9415" y2="178.9415"/><text fill="#000000" font-family="sans-serif" font-size="14" lengthAdjust="spacing" textLength="137" x="357" y="183.8734">aggregate functions</text><line style="stroke:#181818;stroke-width:1.0;stroke-dasharray:1.0,2.0;" x1="494" x2="618" y1="178.9415" y2="178.9415"/><text fill="#000000" font-family="sans-serif" font-size="14" lengthAdjust="spacing" textLength="148" x="238" y="321.8489">desc(): SortedProperty</text><text fill="#000000" font-family="sans-serif" font-size="14" lengthAdjust="spacing" textLength="139" x="238" y="340.9168">asc(): SortedProperty</text><line style="stroke:#181818;stroke-width:1.0;stroke-dasharray:1.0,2.0;" x1="233" x2="379" y1="297.349" y2="297.349"/><text fill="#000000" font-family="sans-serif" font-size="14" lengthAdjust="spacing" textLength="93" x="379" y="302.2809">sort functions</text><line style="stroke:#181818;stroke-width:1.0;stroke-dasharray:1.0,2.0;" x1="472" x2="618" y1="297.349" y2="297.349"/><text fill="#000000" font-family="sans-serif" font-size="14" lengthAdjust="spacing" textLength="367" x="238" y="383.0526">operator&gt;(right: LogicConstValue) : PropertyExpression</text><text fill="#000000" font-family="sans-serif" font-size="14" lengthAdjust="spacing" textLength="375" x="238" y="402.1205">operator&gt;=(right: LogicConstValue) : PropertyExpression</text><text fill="#000000" font-family="sans-serif" font-size="14" lengthAdjust="spacing" textLength="367" x="238" y="421.1884">operator&lt;(right: LogicConstValue) : PropertyExpression</text><text fill="#000000" font-family="sans-serif" font-size="14" lengthAdjust="spacing" textLength="375" x="238" y="440.2564">operator&lt;=(right: LogicConstValue) : PropertyExpression</text><text fill="#000000" font-family="sans-serif" font-size="14" lengthAdjust="spacing" textLength="375" x="238" y="459.3243">operator==(right: LogicConstValue) : PropertyExpression</text><text fill="#000000" font-family="sans-serif" font-size="14" lengthAdjust="spacing" textLength="371" x="238" y="478.3922">operator!=(right: LogicConstValue) : PropertyExpression</text><text fill="#000000" font-family="sans-serif" font-size="14" lengthAdjust="spacing" textLength="371" x="238" y="497.4601">operator%(right: LogicConstValue) : PropertyExpression</text><text fill="#000000" font-family="sans-serif" font-size="14" lengthAdjust="spacing" textLength="367" x="238" y="516.528">operator^(right: LogicConstValue) : PropertyExpression</text><line style="stroke:#181818;stroke-width:1.0;stroke-dasharray:1.0,2.0;" x1="233" x2="375" y1="358.5527" y2="358.5527"/><text fill="#000000" font-family="sans-serif" font-size="14" lengthAdjust="spacing" textLength="101" x="375" y="363.4847">logical r values</text><line style="stroke:#181818;stroke-width:1.0;stroke-dasharray:1.0,2.0;" x1="476" x2="618" y1="358.5527" y2="358.5527"/></g><path d="M654.5,238.5 L654.5,257.206 L605,377.6206 L654.5,265.206 L654.5,283.912 A0,0 0 0 0 654.5,283.912 L774.5,283.912 A0,0 0 0 0 774.5,283.912 L774.5,248.5 L764.5,238.5 L654.5,238.5 A0,0 0 0 0 654.5,238.5 " fill="#FEFFDD" style="stroke:#181818;stroke-width:0.5;"/><path d="M764.5,238.5 L764.5,248.5 L774.5,248.5 L764.5,238.5 " fill="#FEFFDD" style="stroke:#181818;stroke-width:0.5;"/><text fill="#000000" font-family="sans-serif" font-size="13" lengthAdjust="spacing" textLength="62" x="660.5" y="257.397">and all the</text><text fill="#000000" font-family="sans-serif" font-size="13" lengthAdjust="spacing" textLength="99" x="660.5" y="275.103">above operators</text><!--MD5=[ef8a845501223fe3a509a6dc39a974ed]
class AggregationType--><g id="elem_AggregationType"><rect codeLine="52" fill="#F1F1F1" height="135.3396" id="AggregationType" rx="2.5" ry="2.5" style="stroke:#181818;stroke-width:0.5;" width="148" x="351.5" y="870.5"/><ellipse cx="366.5" cy="886.5" fill="#EB937F" rx="11" ry="11" style="stroke:#181818;stroke-width:1.0;"/><path d="M362.8594,893 L362.8594,880.8594 L370.5156,880.8594 L370.5156,882.9844 L365.2344,882.9844 L365.2344,885.6406 L370.25,885.6406 L370.25,887.7656 L365.2344,887.7656 L365.2344,890.875 L370.5156,890.875 L370.5156,893 L362.8594,893 Z " fill="#000000"/><text fill="#000000" font-family="sans-serif" font-size="14" lengthAdjust="spacing" textLength="116" x="380.5" y="891.932">AggregationType</text><line style="stroke:#181818;stroke-width:0.5;" x1="352.5" x2="498.5" y1="902.5" y2="902.5"/><text fill="#000000" font-family="sans-serif" font-size="14" lengthAdjust="spacing" textLength="49" x="357.5" y="921.4659">COUNT</text><text fill="#000000" font-family="sans-serif" font-size="14" lengthAdjust="spacing" textLength="27" x="357.5" y="940.5339">AVG</text><text fill="#000000" font-family="sans-serif" font-size="14" lengthAdjust="spacing" textLength="31" x="357.5" y="959.6018">SUM</text><text fill="#000000" font-family="sans-serif" font-size="14" lengthAdjust="spacing" textLength="30" x="357.5" y="978.6697">MAX</text><text fill="#000000" font-family="sans-serif" font-size="14" lengthAdjust="spacing" textLength="29" x="357.5" y="997.7376">MIN</text></g><!--MD5=[7d5e827e80b628ab382fb03e2d5c9da6]
class AggregatedProperty--><g id="elem_AggregatedProperty"><rect codeLine="60" fill="#F1F1F1" height="59.0679" id="AggregatedProperty" rx="2.5" ry="2.5" style="stroke:#181818;stroke-width:0.5;" width="169" x="341" y="639.5"/><ellipse cx="356" cy="655.5" fill="#F1F1F1" rx="11" ry="11" style="stroke:#181818;stroke-width:1.0;"/><path d="M355.6719,662.1719 Q354.75,662.1719 353.8594,662 Q352.9688,661.8125 352.1875,661.4375 L352.1875,659.1875 Q353.1406,659.6719 354.0156,659.9063 Q354.9063,660.125 355.75,660.125 Q356.625,660.125 357.1875,659.8281 Q357.75,659.5313 357.75,658.75 Q357.75,658.2031 357.4531,657.9063 Q357.1563,657.5938 356.5938,657.3125 Q356.0313,657.0313 355.25,656.625 Q354.4688,656.2031 353.8125,655.7188 Q353.1719,655.2188 352.7969,654.5469 Q352.4219,653.875 352.4219,652.9219 Q352.4219,651.2969 353.5156,650.5 Q354.625,649.6875 356.4063,649.6875 Q357.125,649.6875 358.1094,649.8594 Q359.0938,650.0156 360.0469,650.4688 L359.2656,652.3906 Q358.4219,652.0313 357.7344,651.8906 Q357.0625,651.7344 356.5469,651.7344 Q355.7031,651.7344 355.3125,652.0781 Q354.9375,652.4063 354.9375,653.0469 Q354.9375,653.5313 355.1719,653.8438 Q355.4219,654.1406 355.8906,654.3906 Q356.375,654.6406 357.1094,655.0156 Q358.1094,655.5 358.8125,655.9688 Q359.5156,656.4375 359.8906,657.0625 Q360.2656,657.6719 360.2656,658.6094 Q360.2656,659.7969 359.6875,660.5938 Q359.125,661.375 358.0781,661.7813 Q357.0469,662.1719 355.6719,662.1719 Z " fill="#000000"/><text fill="#000000" font-family="sans-serif" font-size="14" lengthAdjust="spacing" textLength="137" x="370" y="660.932">AggregatedProperty</text><line style="stroke:#181818;stroke-width:0.5;" x1="342" x2="509" y1="671.5" y2="671.5"/><text fill="#000000" font-family="sans-serif" font-size="14" lengthAdjust="spacing" textLength="153" x="347" y="690.4659">type: AggregationType</text></g><!--MD5=[475533bf6c0770e0769c177789961f4f]
class SortType--><g id="elem_SortType"><rect codeLine="64" fill="#F1F1F1" height="78.1358" id="SortType" rx="2.5" ry="2.5" style="stroke:#181818;stroke-width:0.5;" width="91" x="566" y="899"/><ellipse cx="581" cy="915" fill="#EB937F" rx="11" ry="11" style="stroke:#181818;stroke-width:1.0;"/><path d="M577.3594,921.5 L577.3594,909.3594 L585.0156,909.3594 L585.0156,911.4844 L579.7344,911.4844 L579.7344,914.1406 L584.75,914.1406 L584.75,916.2656 L579.7344,916.2656 L579.7344,919.375 L585.0156,919.375 L585.0156,921.5 L577.3594,921.5 Z " fill="#000000"/><text fill="#000000" font-family="sans-serif" font-size="14" lengthAdjust="spacing" textLength="59" x="595" y="920.432">SortType</text><line style="stroke:#181818;stroke-width:0.5;" x1="567" x2="656" y1="931" y2="931"/><text fill="#000000" font-family="sans-serif" font-size="14" lengthAdjust="spacing" textLength="26" x="572" y="949.9659">ASC</text><text fill="#000000" font-family="sans-serif" font-size="14" lengthAdjust="spacing" textLength="35" x="572" y="969.0339">DESC</text></g><!--MD5=[0b4dc0f41ef46e3055fc128e1de6fe17]
class SortedProperty--><g id="elem_SortedProperty"><rect codeLine="69" fill="#F1F1F1" height="59.0679" id="SortedProperty" rx="2.5" ry="2.5" style="stroke:#181818;stroke-width:0.5;" width="133" x="545" y="639.5"/><ellipse cx="560" cy="655.5" fill="#F1F1F1" rx="11" ry="11" style="stroke:#181818;stroke-width:1.0;"/><path d="M559.6719,662.1719 Q558.75,662.1719 557.8594,662 Q556.9688,661.8125 556.1875,661.4375 L556.1875,659.1875 Q557.1406,659.6719 558.0156,659.9063 Q558.9063,660.125 559.75,660.125 Q560.625,660.125 561.1875,659.8281 Q561.75,659.5313 561.75,658.75 Q561.75,658.2031 561.4531,657.9063 Q561.1563,657.5938 560.5938,657.3125 Q560.0313,657.0313 559.25,656.625 Q558.4688,656.2031 557.8125,655.7188 Q557.1719,655.2188 556.7969,654.5469 Q556.4219,653.875 556.4219,652.9219 Q556.4219,651.2969 557.5156,650.5 Q558.625,649.6875 560.4063,649.6875 Q561.125,649.6875 562.1094,649.8594 Q563.0938,650.0156 564.0469,650.4688 L563.2656,652.3906 Q562.4219,652.0313 561.7344,651.8906 Q561.0625,651.7344 560.5469,651.7344 Q559.7031,651.7344 559.3125,652.0781 Q558.9375,652.4063 558.9375,653.0469 Q558.9375,653.5313 559.1719,653.8438 Q559.4219,654.1406 559.8906,654.3906 Q560.375,654.6406 561.1094,655.0156 Q562.1094,655.5 562.8125,655.9688 Q563.5156,656.4375 563.8906,657.0625 Q564.2656,657.6719 564.2656,658.6094 Q564.2656,659.7969 563.6875,660.5938 Q563.125,661.375 562.0781,661.7813 Q561.0469,662.1719 559.6719,662.1719 Z " fill="#000000"/><text fill="#000000" font-family="sans-serif" font-size="14" lengthAdjust="spacing" textLength="101" x="574" y="660.932">SortedProperty</text><line style="stroke:#181818;stroke-width:0.5;" x1="546" x2="677" y1="671.5" y2="671.5"/><text fill="#000000" font-family="sans-serif" font-size="14" lengthAdjust="spacing" textLength="96" x="551" y="690.4659">type: SortType</text></g><!--MD5=[21a0e71c2445661e396dc0d41245bed8]
class PropertyExpressionOperand--><g id="elem_PropertyExpressionOperand"><rect codeLine="79" fill="#F1F1F1" height="91.5479" id="PropertyExpressionOperand" rx="2.5" ry="2.5" style="stroke:#181818;stroke-width:0.5;" width="222" x="751.5" y="892"/><ellipse cx="766.5" cy="914.706" fill="#DA70D6" rx="11" ry="11" style="stroke:#181818;stroke-width:1.0;"/><path d="M763.2656,921.206 L763.2656,909.0654 L767.0156,909.0654 Q769.3906,909.0654 770.7813,910.581 Q772.1875,912.081 772.1875,915.0341 Q772.1875,918.0029 770.75,919.6123 Q769.3125,921.206 766.8281,921.206 L763.2656,921.206 Z M766.7031,919.1123 Q768.25,919.1123 768.9688,918.1123 Q769.6875,917.1123 769.6875,915.0498 Q769.6875,913.0185 768.9844,912.0966 Q768.2969,911.1591 766.9063,911.1591 L765.7031,911.1591 L765.7031,919.1123 L766.7031,919.1123 Z " fill="#000000"/><text fill="#000000" font-family="sans-serif" font-size="12" font-style="italic" lengthAdjust="spacing" textLength="51" x="850" y="909.8281">«variant»</text><text fill="#000000" font-family="sans-serif" font-size="14" lengthAdjust="spacing" textLength="190" x="780.5" y="928.31">PropertyExpressionOperand</text><line style="stroke:#181818;stroke-width:0.5;" x1="752.5" x2="972.5" y1="937.412" y2="937.412"/><text fill="#000000" font-family="sans-serif" font-size="14" lengthAdjust="spacing" textLength="110" x="757.5" y="956.378">LogicConstValue</text><text fill="#000000" font-family="sans-serif" font-size="14" lengthAdjust="spacing" textLength="130" x="757.5" y="975.4459">PropertyExpression</text></g><!--MD5=[c4988d5050011c17cfa22668f29cf8dc]
class PropertyExpressionOperator--><g id="elem_PropertyExpressionOperator"><rect codeLine="84" fill="#F1F1F1" height="249.7471" id="PropertyExpressionOperator" rx="2.5" ry="2.5" style="stroke:#181818;stroke-width:0.5;" width="223" x="1009" y="813"/><ellipse cx="1024" cy="829" fill="#EB937F" rx="11" ry="11" style="stroke:#181818;stroke-width:1.0;"/><path d="M1020.3594,835.5 L1020.3594,823.3594 L1028.0156,823.3594 L1028.0156,825.4844 L1022.7344,825.4844 L1022.7344,828.1406 L1027.75,828.1406 L1027.75,830.2656 L1022.7344,830.2656 L1022.7344,833.375 L1028.0156,833.375 L1028.0156,835.5 L1020.3594,835.5 Z " fill="#000000"/><text fill="#000000" font-family="sans-serif" font-size="14" lengthAdjust="spacing" textLength="191" x="1038" y="834.432">PropertyExpressionOperator</text><line style="stroke:#181818;stroke-width:0.5;" x1="1010" x2="1231" y1="845" y2="845"/><text fill="#000000" font-family="sans-serif" font-size="14" lengthAdjust="spacing" textLength="19" x="1015" y="863.9659">EQ</text><text fill="#000000" font-family="sans-serif" font-size="14" lengthAdjust="spacing" textLength="30" x="1015" y="883.0339">NEQ</text><text fill="#000000" font-family="sans-serif" font-size="14" lengthAdjust="spacing" textLength="18" x="1015" y="902.1018">GT</text><text fill="#000000" font-family="sans-serif" font-size="14" lengthAdjust="spacing" textLength="26" x="1015" y="921.1697">GTE</text><text fill="#000000" font-family="sans-serif" font-size="14" lengthAdjust="spacing" textLength="15" x="1015" y="940.2376">LT</text><text fill="#000000" font-family="sans-serif" font-size="14" lengthAdjust="spacing" textLength="23" x="1015" y="959.3055">LTE</text><text fill="#000000" font-family="sans-serif" font-size="14" lengthAdjust="spacing" textLength="29" x="1015" y="978.3734">LIKE</text><text fill="#000000" font-family="sans-serif" font-size="14" lengthAdjust="spacing" textLength="40" x="1015" y="997.4414">NLIKE</text><text fill="#000000" font-family="sans-serif" font-size="14" lengthAdjust="spacing" textLength="30" x="1015" y="1016.5093">AND</text><text fill="#000000" font-family="sans-serif" font-size="14" lengthAdjust="spacing" textLength="20" x="1015" y="1035.5772">OR</text><text fill="#000000" font-family="sans-serif" font-size="14" lengthAdjust="spacing" textLength="30" x="1015" y="1054.6451">NOT</text></g><!--MD5=[719863c63d44d5d570a9b67192a311a1]
class PropertyExpression--><g id="elem_PropertyExpression"><rect codeLine="98" fill="#F1F1F1" height="124.2717" id="PropertyExpression" rx="2.5" ry="2.5" style="stroke:#181818;stroke-width:0.5;" width="421" x="713" y="607"/><ellipse cx="854.25" cy="623" fill="#F1F1F1" rx="11" ry="11" style="stroke:#181818;stroke-width:1.0;"/><path d="M853.9219,629.6719 Q853,629.6719 852.1094,629.5 Q851.2188,629.3125 850.4375,628.9375 L850.4375,626.6875 Q851.3906,627.1719 852.2656,627.4063 Q853.1563,627.625 854,627.625 Q854.875,627.625 855.4375,627.3281 Q856,627.0313 856,626.25 Q856,625.7031 855.7031,625.4063 Q855.4063,625.0938 854.8438,624.8125 Q854.2813,624.5313 853.5,624.125 Q852.7188,623.7031 852.0625,623.2188 Q851.4219,622.7188 851.0469,622.0469 Q850.6719,621.375 850.6719,620.4219 Q850.6719,618.7969 851.7656,618 Q852.875,617.1875 854.6563,617.1875 Q855.375,617.1875 856.3594,617.3594 Q857.3438,617.5156 858.2969,617.9688 L857.5156,619.8906 Q856.6719,619.5313 855.9844,619.3906 Q855.3125,619.2344 854.7969,619.2344 Q853.9531,619.2344 853.5625,619.5781 Q853.1875,619.9063 853.1875,620.5469 Q853.1875,621.0313 853.4219,621.3438 Q853.6719,621.6406 854.1406,621.8906 Q854.625,622.1406 855.3594,622.5156 Q856.3594,623 857.0625,623.4688 Q857.7656,623.9375 858.1406,624.5625 Q858.5156,625.1719 858.5156,626.1094 Q858.5156,627.2969 857.9375,628.0938 Q857.375,628.875 856.3281,629.2813 Q855.2969,629.6719 853.9219,629.6719 Z " fill="#000000"/><text fill="#000000" font-family="sans-serif" font-size="14" lengthAdjust="spacing" textLength="130" x="874.75" y="628.432">PropertyExpression</text><line style="stroke:#181818;stroke-width:0.5;" x1="714" x2="1133" y1="639" y2="639"/><text fill="#000000" font-family="sans-serif" font-size="14" lengthAdjust="spacing" textLength="228" x="719" y="657.9659">type: PropertyExpressionOperator</text><line style="stroke:#181818;stroke-width:0.5;" x1="714" x2="1133" y1="666.0679" y2="666.0679"/><ellipse cx="724" cy="681.1019" fill="#84BE84" rx="3" ry="3" style="stroke:#038048;stroke-width:1.0;"/><text fill="#000000" font-family="sans-serif" font-size="14" lengthAdjust="spacing" textLength="395" x="733" y="685.0339">operator&amp;&amp;(right: PropertyExpression): PropertyExpression</text><ellipse cx="724" cy="700.1698" fill="#84BE84" rx="3" ry="3" style="stroke:#038048;stroke-width:1.0;"/><text fill="#000000" font-family="sans-serif" font-size="14" lengthAdjust="spacing" textLength="391" x="733" y="704.1018">operator||(right: PropertyExpression): PropertyExpression</text><ellipse cx="724" cy="719.2377" fill="#84BE84" rx="3" ry="3" style="stroke:#038048;stroke-width:1.0;"/><text fill="#000000" font-family="sans-serif" font-size="14" lengthAdjust="spacing" textLength="212" x="733" y="723.1697">operator~(): PropertyExpression</text></g><!--MD5=[4f6f57e005846e1d8013259b5fd926ea]
link Property to PropertyType--><g id="link_Property_PropertyType"><path codeLine="49" d="M231.83,483.93 C187.48,533.61 144.34,581.93 113.4,616.59 " fill="none" id="Property-to-PropertyType" style="stroke:#181818;stroke-width:1.0;stroke-dasharray:7.0,7.0;"/><polygon fill="#181818" points="110.06,620.32,119.0376,616.2699,113.3898,616.5901,113.0697,610.9423,110.06,620.32" style="stroke:#181818;stroke-width:1.0;"/></g><!--MD5=[7c53d553acb5fa952b00e327c6d1520e]
link Property to LogicConstValue--><g id="link_Property_LogicConstValue"><path codeLine="50" d="M302.51,525.21 C289.69,552.14 277.59,577.54 267.24,599.25 " fill="none" id="Property-to-LogicConstValue" style="stroke:#181818;stroke-width:1.0;stroke-dasharray:7.0,7.0;"/><polygon fill="#181818" points="265.07,603.83,272.5595,597.4341,267.2258,599.3186,265.3413,593.9849,265.07,603.83" style="stroke:#181818;stroke-width:1.0;"/></g><!--MD5=[04262da7554a857b9d32a59a8ef7e42a]
link AggregatedProperty to AggregationType--><g id="link_AggregatedProperty_AggregationType"><path codeLine="73" d="M425.5,698.57 C425.5,738 425.5,810.4 425.5,865.11 " fill="none" id="AggregatedProperty-to-AggregationType" style="stroke:#181818;stroke-width:1.0;stroke-dasharray:7.0,7.0;"/><polygon fill="#181818" points="425.5,870.35,429.5,861.35,425.5,865.35,421.5,861.35,425.5,870.35" style="stroke:#181818;stroke-width:1.0;"/></g><!--MD5=[126926882524bf1fdaa6da6bea474263]
link SortedProperty to SortType--><g id="link_SortedProperty_SortType"><path codeLine="74" d="M611.5,698.57 C611.5,745.36 611.5,838.59 611.5,893.59 " fill="none" id="SortedProperty-to-SortType" style="stroke:#181818;stroke-width:1.0;stroke-dasharray:7.0,7.0;"/><polygon fill="#181818" points="611.5,898.79,615.5,889.79,611.5,893.79,607.5,889.79,611.5,898.79" style="stroke:#181818;stroke-width:1.0;"/></g><!--MD5=[046b157d9e46684cc4b090f0c3a63cb6]
reverse link Property to AggregatedProperty--><g id="link_Property_AggregatedProperty"><path codeLine="76" d="M425.5,538.33 C425.5,579.19 425.5,615.55 425.5,639.3 " fill="none" id="Property-backto-AggregatedProperty" style="stroke:#181818;stroke-width:1.0;"/><polygon fill="#181818" points="425.5,525.21,421.5,531.21,425.5,537.21,429.5,531.21,425.5,525.21" style="stroke:#181818;stroke-width:1.0;"/><text fill="#000000" font-family="sans-serif" font-size="13" lengthAdjust="spacing" textLength="53" x="426.5" y="569.897">property</text></g><!--MD5=[ff0d1667c08c87ca890e5f41659278bd]
reverse link Property to SortedProperty--><g id="link_Property_SortedProperty"><path codeLine="77" d="M550.86,537.27 C570.02,578.56 587.08,615.35 598.19,639.3 " fill="none" id="Property-backto-SortedProperty" style="stroke:#181818;stroke-width:1.0;"/><polygon fill="#181818" points="545.27,525.21,544.1651,532.3359,550.3179,536.0966,551.4228,528.9707,545.27,525.21" style="stroke:#181818;stroke-width:1.0;"/><text fill="#000000" font-family="sans-serif" font-size="13" lengthAdjust="spacing" textLength="53" x="568.5" y="569.897">property</text></g><!--MD5=[d39332819ca3fb8f9f4da001ddc9c86d]
link PropertyExpression to PropertyExpressionOperand--><g id="link_PropertyExpression_PropertyExpressionOperand"><path codeLine="106" d="M874.53,731.02 C868.36,741.5 862.99,752.68 859.5,764 C848.1,801 848.94,844.6 852.58,878.77 " fill="none" id="PropertyExpression-to-PropertyExpressionOperand" style="stroke:#181818;stroke-width:1.0;"/><polygon fill="#181818" points="854.16,891.84,857.4121,885.4039,852.7219,879.9265,849.4698,886.3626,854.16,891.84" style="stroke:#181818;stroke-width:1.0;"/><text fill="#000000" font-family="sans-serif" font-size="13" lengthAdjust="spacing" textLength="19" x="860.5" y="778.897">left</text></g><!--MD5=[d39332819ca3fb8f9f4da001ddc9c86d]
link PropertyExpression to PropertyExpressionOperand--><g id="link_PropertyExpression_PropertyExpressionOperand"><path codeLine="107" d="M909.51,731.26 C899.35,775.72 885.69,835.49 875.72,879.14 " fill="none" id="PropertyExpression-to-PropertyExpressionOperand-1" style="stroke:#181818;stroke-width:1.0;"/><polygon fill="#181818" points="872.81,891.86,878.0465,886.9023,875.4843,880.1618,870.2477,885.1195,872.81,891.86" style="stroke:#181818;stroke-width:1.0;"/><text fill="#000000" font-family="sans-serif" font-size="13" lengthAdjust="spacing" textLength="29" x="901.5" y="778.897">right</text></g><!--MD5=[686a631c7c993ecb92b58144d23f2b0d]
link PropertyExpression to PropertyExpressionOperator--><g id="link_PropertyExpression_PropertyExpressionOperator"><path codeLine="108" d="M968.7,731.26 C985.73,754.35 1005.81,781.56 1025.69,808.51 " fill="none" id="PropertyExpression-to-PropertyExpressionOperator" style="stroke:#181818;stroke-width:1.0;stroke-dasharray:7.0,7.0;"/><polygon fill="#181818" points="1028.88,812.83,1026.7626,803.2114,1025.9145,808.8044,1020.3216,807.9563,1028.88,812.83" style="stroke:#181818;stroke-width:1.0;"/></g><!--MD5=[92849d49a3f89318cc933ea206f42dd9]
link Property to PropertyExpression--><g id="link_Property_PropertyExpression"><path codeLine="110" d="M619.03,510.39 C624.8,515.42 630.62,520.31 636.5,525 C675.41,556.06 722.15,582.87 766.51,604.61 " fill="none" id="Property-to-PropertyExpression" style="stroke:#181818;stroke-width:1.0;stroke-dasharray:7.0,7.0;"/><polygon fill="#181818" points="771.08,606.83,764.7514,599.2836,766.5881,604.6339,761.2377,606.4706,771.08,606.83" style="stroke:#181818;stroke-width:1.0;"/></g><!--MD5=[87183efa7fb1ffba90622fc9c37d4f29]
@startuml
hide empty members

enum PropertyType {
  STRING
  DOUBLE
  INTEGER
}

class LogicConstValue << variant >> << (D, orchid) >> {
    string
    int
    double
    Property
}

class Property {
    - name: string
    - type: PropertyType
    - id: int
    - - -
    getName(): string
    getType(): PropertyType
    getId(): int
    .. aggregate functions ..
    countAs(alias:string): AggregatedProperty
    maxAs(alias:string): AggregatedProperty
    minAs(alias:string): AggregatedProperty
    sumAs(alias:string): AggregatedProperty
    averageAs(alias:string): AggregatedProperty
    .. sort functions ..
    desc(): SortedProperty
    asc(): SortedProperty
    .. logical r values ..
    operator>(right: LogicConstValue) : PropertyExpression 
    operator>=(right: LogicConstValue) : PropertyExpression 
    operator<(right: LogicConstValue) : PropertyExpression 
    operator<=(right: LogicConstValue) : PropertyExpression 
    operator==(right: LogicConstValue) : PropertyExpression 
    operator!=(right: LogicConstValue) : PropertyExpression 
    operator%(right: LogicConstValue) : PropertyExpression 
    operator^(right: LogicConstValue) : PropertyExpression 
}

note right of Property::"operator>(right: LogicConstValue)"
    and all the 
    above operators
end note

Property ..> PropertyType
Property ..> LogicConstValue

enum AggregationType {
    COUNT
    AVG
    SUM
    MAX
    MIN
}

struct AggregatedProperty {
    type: AggregationType
}

enum SortType {
    ASC
    DESC
}

struct SortedProperty {
    type: SortType
}

AggregatedProperty ..> AggregationType
SortedProperty ..> SortType

Property *- - AggregatedProperty : property
Property *- - SortedProperty : property

class PropertyExpressionOperand << variant >> << (D, orchid) >> {
 LogicConstValue
 PropertyExpression
}

enum PropertyExpressionOperator {
    EQ
    NEQ
    GT
    GTE
    LT
    LTE
    LIKE
    NLIKE
    AND
    OR
    NOT
}

struct PropertyExpression {
    type: PropertyExpressionOperator

    +operator&&(right: PropertyExpression): PropertyExpression
    +operator||(right: PropertyExpression): PropertyExpression
    +operator~(): PropertyExpression
}

PropertyExpression - -* PropertyExpressionOperand: left
PropertyExpression - -* PropertyExpressionOperand: right
PropertyExpression ..> PropertyExpressionOperator

Property ..> PropertyExpression
@enduml

PlantUML version 1.2022.8(Sun Sep 25 06:00:33 ART 2022)
(MIT source distribution)
Java Runtime: OpenJDK Runtime Environment
JVM: OpenJDK 64-Bit Server VM
Default Encoding: UTF-8
Language: en
Country: US
--></g></svg>